<?xml version="1.0" encoding="UTF-8"?>
<svg id="Layer_1" xmlns="http://www.w3.org/2000/svg" version="1.1" viewBox="0 0 2000 2000">
  <!-- Generator: Adobe Illustrator 29.1.0, SVG Export Plug-In . SVG Version: 2.1.0 Build 142)  -->
  <defs>
    <style>
      .st0 {
        fill: #fff;
      }
    </style>
  </defs>
  <path class="st0" d="M322.3,314.9l-2,606.7c0,19.1,24.3,27.2,35.7,11.9l467.5-630.4c3.7-5,9.6-8,15.9-8h221.7c16.2,0,25.5,18.4,16,31.5l-459.7,629.4c-4.7,6.4-5.1,15.1-1,21.9l420.1,697.1c8,13.2-1.5,30-17,30h-215.4c-6.9,0-13.3-3.6-16.9-9.4l-311.9-506.9c-.7-1.2-1.6-2.3-2.5-3.3h0c-8.5-8.9-23-8-30.3,1.9l-120.3,164.1c-2.8,3.9-3.7,8.6-3.7,13.4-.9,104.6,1.4,214.6-1.5,319.7-.3,11.2-8.6,20.4-19.8,20.4H110.2c-10.9,0-19.8-8.9-19.8-19.8V314.9c0-10.9,8.9-19.8,19.8-19.8h192.3c11,0,19.8,8.9,19.8,19.9Z"/>
  <polygon class="st0" points="1909.6 294.9 1352.7 1705.1 1211.4 1700.3 809.6 907.6 956.8 708.8 1272.8 1309.1 1670.8 294.9 1909.6 294.9"/>
</svg>